<svg xmlns="http://www.w3.org/2000/svg" width="32" height="32.027" viewBox="0 0 32 32.027"><defs><style>.a{fill:#121300;}</style></defs><path class="a" d="M1.1-28.158A15.462,15.462,0,0,1,5.785-39.51a15.354,15.354,0,0,1,11.3-4.716A15.417,15.417,0,0,1,28.434-39.51,15.508,15.508,0,0,1,33.1-28.158a15.444,15.444,0,0,1-4.662,11.3A15.508,15.508,0,0,1,17.082-12.2a15.444,15.444,0,0,1-11.3-4.662A15.4,15.4,0,0,1,1.1-28.158Zm3.236,0a12.271,12.271,0,0,0,3.757,8.994,12.169,12.169,0,0,0,8.994,3.784,12.289,12.289,0,0,0,9.049-3.784,12.271,12.271,0,0,0,3.757-8.994,12.308,12.308,0,0,0-3.757-9.076,12.38,12.38,0,0,0-9.049-3.729,12.257,12.257,0,0,0-8.994,3.729A12.308,12.308,0,0,0,4.331-28.158Zm12.751,5.429q4.552.247,6.225-5.347h1.481Q24.376-20.617,17-20.233q-7.1-.521-7.513-7.815h1.4Q13.106-22.509,17.082-22.729Zm5.183-7.87a2.307,2.307,0,0,1-2.44-2.523,2.464,2.464,0,0,1,2.6-2.632,2.374,2.374,0,0,1,2.386,2.55A2.409,2.409,0,0,1,22.265-30.6Zm-10.338,0a2.326,2.326,0,0,1-2.44-2.523,2.5,2.5,0,0,1,2.632-2.632A2.4,2.4,0,0,1,14.5-33.2,2.44,2.44,0,0,1,11.927-30.6Z" transform="translate(-1.096 44.227)"/></svg>