<?xml version="1.0" standalone="no"?>
<!DOCTYPE svg PUBLIC "-//W3C//DTD SVG 20010904//EN"
 "http://www.w3.org/TR/2001/REC-SVG-20010904/DTD/svg10.dtd">
<svg version="1.0" xmlns="http://www.w3.org/2000/svg"
 width="700.000000pt" height="700.000000pt" viewBox="0 0 700.000000 700.000000"
 preserveAspectRatio="xMidYMid meet">
<metadata>
Created by potrace 1.11, written by Peter Selinger 2001-2013
</metadata>
<g transform="translate(0.000000,700.000000) scale(0.100000,-0.100000)"
fill="#000000" stroke="none">
<path d="M1580 6569 c-85 -72 -164 -138 -175 -147 -46 -38 -140 -117 -145
-122 -3 -3 -26 -22 -52 -43 -26 -21 -53 -43 -60 -50 -7 -7 -38 -32 -68 -57
-30 -25 -57 -47 -60 -50 -3 -3 -27 -23 -55 -45 -27 -22 -54 -45 -60 -51 -5 -6
-46 -39 -90 -75 -44 -35 -84 -68 -90 -74 -8 -9 -111 -95 -264 -220 -14 -11
-43 -36 -65 -56 -23 -19 -61 -51 -86 -70 -25 -18 -52 -41 -60 -50 -8 -9 -53
-47 -100 -85 -47 -38 -96 -79 -110 -91 -14 -13 -28 -23 -32 -23 -5 0 -8 -461
-8 -1025 l0 -1025 28 -24 c15 -13 196 -164 402 -336 206 -171 386 -321 400
-333 14 -12 158 -132 320 -267 162 -135 306 -254 320 -266 14 -12 167 -140
340 -284 173 -144 335 -279 360 -300 25 -20 88 -73 140 -116 52 -43 100 -83
106 -89 6 -5 30 -26 54 -45 53 -43 351 -291 401 -334 20 -17 45 -38 55 -46 26
-21 258 -214 264 -220 27 -29 304 -250 313 -250 7 0 26 13 42 28 17 15 71 61
120 102 50 41 92 77 95 80 3 3 26 22 52 43 26 21 53 43 60 50 7 7 36 30 63 52
28 22 52 42 55 45 3 3 59 50 125 105 66 55 125 104 131 110 7 5 29 24 50 41
39 31 840 699 879 732 11 9 171 142 355 295 184 154 349 291 366 305 17 15 53
45 79 67 27 22 108 90 180 150 73 61 149 124 171 142 21 17 181 150 354 295
l315 263 3 1021 2 1021 -27 24 c-26 22 -154 130 -277 233 -27 23 -84 70 -125
104 -42 35 -94 79 -116 97 -265 219 -496 412 -520 434 -16 15 -39 33 -51 41
-12 8 -42 33 -67 55 -24 22 -53 47 -64 55 -10 8 -59 49 -108 90 -50 41 -99 82
-109 90 -10 8 -51 42 -90 75 -163 138 -185 155 -198 155 -7 0 -403 -260 -881
-579 l-867 -578 -863 575 c-474 316 -871 577 -882 579 -14 2 -68 -37 -175
-128z"/>
</g>
</svg>
