<?xml version="1.0" standalone="no"?>
<!DOCTYPE svg PUBLIC "-//W3C//DTD SVG 20010904//EN"
 "http://www.w3.org/TR/2001/REC-SVG-20010904/DTD/svg10.dtd">
<svg version="1.0" xmlns="http://www.w3.org/2000/svg"
 width="700.000000pt" height="700.000000pt" viewBox="0 0 700.000000 700.000000"
 preserveAspectRatio="xMidYMid meet">
<metadata>
Created by potrace 1.14, written by Peter Selinger 2001-2017
</metadata>
<g transform="translate(0.000000,700.000000) scale(0.100000,-0.100000)"
fill="#000000" stroke="none">
<path d="M2494 5730 c-10 -4 -28 -18 -39 -30 -19 -21 -20 -40 -25 -284 l-5
-261 -135 -2 -135 -2 -27 -31 c-31 -34 -30 -21 -29 -282 1 -153 -1 -168 -17
-169 -24 -1 -372 -1 -404 0 l-27 1 1 212 0 213 -31 27 c-36 32 2 29 -418 29
-193 0 -268 -4 -283 -13 -46 -29 -45 -22 -45 -823 l0 -757 33 -29 c32 -28 35
-29 145 -29 l113 0 1 -110 c1 -167 17 -182 183 -181 l108 1 1 -292 c0 -161 0
-301 0 -311 1 -10 14 -32 30 -48 l29 -29 261 0 261 0 1 -22 c2 -81 -1 -361 -5
-365 -2 -3 -116 -4 -253 -4 -179 0 -255 -3 -273 -12 -47 -24 -51 -49 -51 -305
0 -434 -3 -396 31 -430 l30 -30 326 0 325 0 32 28 32 28 1 259 c1 142 2 260 3
263 1 3 118 5 262 5 l261 0 29 33 29 32 0 260 0 260 680 0 680 0 0 -260 0
-260 29 -32 29 -32 255 -1 c141 0 259 -4 263 -8 5 -4 8 -123 9 -263 l0 -256
32 -28 32 -29 317 0 c344 0 365 3 384 55 14 36 15 632 1 666 -20 53 -46 58
-321 58 l-250 0 -1 28 c0 34 0 297 0 335 l1 27 261 0 261 0 29 29 c16 16 29
38 29 48 0 10 1 150 1 311 l1 292 108 -1 c166 -1 183 16 184 179 l1 107 117 5
c112 5 119 6 145 33 l28 27 0 756 c0 593 -3 762 -13 783 -26 54 -30 55 -382
53 l-325 -1 -27 -31 c-31 -34 -29 -18 -30 -275 0 -93 -4 -172 -8 -175 -4 -3
-120 -5 -257 -4 l-248 1 -2 205 c-1 130 -5 214 -13 227 -24 46 -50 53 -203 52
l-145 0 0 255 c0 268 -2 286 -45 314 -31 20 -626 24 -675 4 -54 -22 -59 -49
-57 -314 0 -129 -1 -240 -3 -247 -3 -9 -64 -12 -243 -12 l-239 1 0 259 0 259
-29 32 -29 33 -319 1 c-176 0 -328 -2 -339 -6z"/>
</g>
</svg>
