<svg id="cat" version="1.1" xmlns="http://www.w3.org/2000/svg" xmlns:xlink="http://www.w3.org/1999/xlink" x="0px" y="0px" viewBox="0 0 181 236" style="enable-background:new 0 0 181 236;" xml:space="preserve"><path d="M148.3,0.7l-31,26.7c-47.5,0-54.7,0-54.7,0l-31-26.7V46l11.9,8.8c2.2-6.9,8.7-12,16.4-12 c9.5,0,17.3,7.7,17.3,17.3c0,5.8-2.9,11-7.4,14.1L90,89l19.3-14.9c-4.4-3.1-7.3-8.3-7.3-14.1c0-9.5,7.7-17.3,17.3-17.3 c7.4,0,13.7,4.6,16.1,11.2l12.9-10V0.7z"/><g><path d="M72.8,190.9l-23-18.6L0.9,133V70.1V7.2l48.9,38.6l48.9,38.6v63.7"/><path d="M82.6,148.1V84.4l48.9-38.6l48.9-38.6v62.9V133l-48.9,39.4L82.6,148.1z M98.6,92.2v43.1V156 l27.4,0.2l5.5-4.4l32.9-26.5V82.8V40.2"/></g><path d="M94.4,234.7c-11.5,0-22.7-3.5-32.2-10.3C50,215.8,42,202.9,39.5,188.2c-3.5-20.5,2.5-41.1,16.4-56.5 c3.5-3.9,9.5-4.2,13.4-0.7c3.9,3.5,4.2,9.5,0.7,13.4c-10,11.1-14.3,25.9-11.8,40.6c1.7,9.7,7,18.2,15,23.9c8,5.7,17.8,7.9,27.5,6.3 c7.3-1.2,13.6-5.2,17.9-11.2s5.9-13.3,4.7-20.6c-1.9-11-12.3-18.4-23.3-16.5c-7.7,1.3-13,8.7-11.7,16.4c0.4,2.5,1.8,4.7,3.9,6.2 c2.1,1.5,4.6,2,7.1,1.6c5.2-0.9,10.1,2.6,11,7.8c0.9,5.2-2.6,10.1-7.8,11c-7.5,1.3-15.1-0.4-21.3-4.8s-10.3-11-11.6-18.5 c-3.1-18.1,9.1-35.3,27.2-38.4c21.3-3.6,41.6,10.8,45.2,32.1c2.1,12.3-0.7,24.6-7.9,34.8c-7.2,10.2-17.9,16.9-30.2,19 C100.8,234.4,97.6,234.7,94.4,234.7z"/></svg>